# Made in Blockbench 5.0.4
mtllib materials.mtl

o floor
v 4 0 4
v 4 0 -4
v -4 0 4
v -4 0 -4
v 2 0 -4
v 2 0 4
v 0 0 -4
v 0 0 4
v -2 0 -4
v -2 0 4
v 2 0 0
v 0 0 0
v -2 0 0
v -4 0 0
v 4 0 0
v 4 0 2
v 2 0 2
v 0 0 2
v -2 0 2
v -4 0 2
v 0 0 -2
v 2 0 -2
v 4 0 -2
v -2 0 -2
v -4 0 -2
vt 0.25 0.5
vt 0.25 0.75
vt 0 0.75
vt 0 0.5
vt 1 0.5
vt 1 0.75
vt 0.75 0.75
vt 0.75 0.5
vt 0.75 0.5
vt 0.75 0.75
vt 0.5 0.75
vt 0.5 0.5
vt 0.5 0.5
vt 0.5 0.75
vt 0.25 0.75
vt 0.25 0.5
vt 0.5 0.5
vt 0.5 0.25
vt 0.75 0.25
vt 0.75 0.5
vt 0.25 0.5
vt 0.25 0.25
vt 0.5 0.25
vt 0.5 0.5
vt 0 0.5
vt 0 0.25
vt 0.25 0.25
vt 0.25 0.5
vt 0.75 0.5
vt 0.75 0.25
vt 1 0.25
vt 1 0.5
vt 1 0
vt 1 0.25
vt 0.75 0.25
vt 0.75 0
vt 0.75 0
vt 0.75 0.25
vt 0.5 0.25
vt 0.5 0
vt 0.5 0
vt 0.5 0.25
vt 0.25 0.25
vt 0.25 0
vt 0.25 0
vt 0.25 0.25
vt 0 0.25
vt 0 0
vt 0.5 1
vt 0.5 0.75
vt 0.75 0.75
vt 0.75 1
vt 0.75 1
vt 0.75 0.75
vt 1 0.75
vt 1 1
vt 0.25 1
vt 0.25 0.75
vt 0.5 0.75
vt 0.5 1
vt 0 1
vt 0 0.75
vt 0.25 0.75
vt 0.25 1
vn 0 1 0
vn 0 1 0
vn 0 1 0
vn 0 1 0
vn 0 1 0
vn 0 1 0
vn 0 1 0
vn 0 1 0
vn 0 1 0
vn 0 1 0
vn 0 1 0
vn 0 1 0
vn 0 1 0
vn 0 1 0
vn 0 1 0
vn 0 1 0
usemtl m_878e1742-63ed-2738-7d23-0d43f36b8f08
f 13/1/1 24/2/1 25/3/1 14/4/1
f 15/5/2 23/6/2 22/7/2 11/8/2
f 11/9/3 22/10/3 21/11/3 12/12/3
f 12/13/4 21/14/4 24/15/4 13/16/4
f 12/17/5 18/18/5 17/19/5 11/20/5
f 13/21/6 19/22/6 18/23/6 12/24/6
f 14/25/7 20/26/7 19/27/7 13/28/7
f 11/29/8 17/30/8 16/31/8 15/32/8
f 1/33/9 16/34/9 17/35/9 6/36/9
f 6/37/10 17/38/10 18/39/10 8/40/10
f 8/41/11 18/42/11 19/43/11 10/44/11
f 10/45/12 19/46/12 20/47/12 3/48/12
f 7/49/13 21/50/13 22/51/13 5/52/13
f 5/53/14 22/54/14 23/55/14 2/56/14
f 9/57/15 24/58/15 21/59/15 7/60/15
f 4/61/16 25/62/16 24/63/16 9/64/16